<svg width="3000" height="3000" viewBox="0 0 3000 3000" fill="none" xmlns="http://www.w3.org/2000/svg">
<path d="M669.07 2709.14C663.522 2692.41 0 292.99 0 289.655C0 286.038 22.4184 285.613 180.221 286.241L253.383 286.532C316.576 286.783 371.767 329.337 388.081 390.388L625.328 1278.23C828.399 2038.18 891.195 2269.34 894.424 2268.78C897.374 2268.27 982.895 1971.67 1180.25 1277.5L1432.96 388.671C1450.07 328.482 1505.05 286.957 1567.62 286.957H1671.12C1740.37 286.957 1786.89 351.529 1767.44 417.988C1725.2 562.387 1665.4 775.967 1661.57 789.176C1658.37 800.254 1534.01 1237.87 1385.24 1761.66L1143.63 2612.25C1126.53 2672.46 1071.55 2714 1008.96 2714H892.706C683.864 2714 670.587 2713.71 669.07 2709.14Z" fill="url(#paint0_linear)"/>
<path d="M669.07 2709.14C663.522 2692.41 0 292.99 0 289.655C0 286.038 22.4184 285.613 180.221 286.241L253.383 286.532C316.576 286.783 371.767 329.337 388.081 390.388L625.328 1278.23C828.399 2038.18 891.195 2269.34 894.424 2268.78C897.374 2268.27 982.895 1971.67 1180.25 1277.5L1432.96 388.671C1450.07 328.482 1505.05 286.957 1567.62 286.957H1671.12C1740.37 286.957 1786.89 351.529 1767.44 417.988C1725.2 562.387 1665.4 775.967 1661.57 789.176C1658.37 800.254 1534.01 1237.87 1385.24 1761.66L1143.63 2612.25C1126.53 2672.46 1071.55 2714 1008.96 2714H892.706C683.864 2714 670.587 2713.71 669.07 2709.14Z" fill="url(#paint1_linear)" fill-opacity="0.66"/>
<path d="M669.07 2709.14C663.522 2692.41 0 292.99 0 289.655C0 286.038 22.4184 285.613 180.221 286.241L253.383 286.532C316.576 286.783 371.767 329.337 388.081 390.388L625.328 1278.23C828.399 2038.18 891.195 2269.34 894.424 2268.78C897.374 2268.27 982.895 1971.67 1180.25 1277.5L1432.96 388.671C1450.07 328.482 1505.05 286.957 1567.62 286.957H1671.12C1740.37 286.957 1786.89 351.529 1767.44 417.988C1725.2 562.387 1665.4 775.967 1661.57 789.176C1658.37 800.254 1534.01 1237.87 1385.24 1761.66L1143.63 2612.25C1126.53 2672.46 1071.55 2714 1008.96 2714H892.706C683.864 2714 670.587 2713.71 669.07 2709.14Z" fill="white"/>
<path d="M2318.65 2714H2107.27C2042.88 2714 1995.79 2653.25 2011.85 2590.9L2080.65 2323.68L2374.39 1270.56L2611.63 390.107C2628.04 329.195 2683.17 286.783 2746.25 286.533L2819.71 286.241C2970.92 285.64 3000 286.141 3000 289.339C3000 292.075 2355.93 2621.45 2332.47 2703.58C2330.71 2709.75 2325.07 2714 2318.65 2714Z" fill="url(#paint2_linear)"/>
<path d="M2318.65 2714H2107.27C2042.88 2714 1995.79 2653.25 2011.85 2590.9L2080.65 2323.68L2374.39 1270.56L2611.63 390.107C2628.04 329.195 2683.17 286.783 2746.25 286.533L2819.71 286.241C2970.92 285.64 3000 286.141 3000 289.339C3000 292.075 2355.93 2621.45 2332.47 2703.58C2330.71 2709.75 2325.07 2714 2318.65 2714Z" fill="url(#paint3_linear)" fill-opacity="0.66"/>
<path d="M2318.65 2714H2107.27C2042.88 2714 1995.79 2653.25 2011.85 2590.9L2080.65 2323.68L2374.39 1270.56L2611.63 390.107C2628.04 329.195 2683.17 286.783 2746.25 286.533L2819.71 286.241C2970.92 285.64 3000 286.141 3000 289.339C3000 292.075 2355.93 2621.45 2332.47 2703.58C2330.71 2709.75 2325.07 2714 2318.65 2714Z" fill="white"/>
<rect x="0.5" y="0.5" width="2999" height="2999" stroke="black"/>
<defs>
<linearGradient id="paint0_linear" x1="0" y1="1500" x2="3342.41" y2="1500" gradientUnits="userSpaceOnUse">
<stop stop-color="#2AF598"/>
<stop offset="1" stop-color="#009EFD"/>
</linearGradient>
<linearGradient id="paint1_linear" x1="1540.87" y1="286" x2="1540.87" y2="2714" gradientUnits="userSpaceOnUse">
<stop stop-color="#AD00FF"/>
<stop offset="1" stop-color="white" stop-opacity="0"/>
</linearGradient>
<linearGradient id="paint2_linear" x1="0" y1="1500" x2="3342.41" y2="1500" gradientUnits="userSpaceOnUse">
<stop stop-color="#2AF598"/>
<stop offset="1" stop-color="#009EFD"/>
</linearGradient>
<linearGradient id="paint3_linear" x1="1540.87" y1="286" x2="1540.87" y2="2714" gradientUnits="userSpaceOnUse">
<stop stop-color="#AD00FF"/>
<stop offset="1" stop-color="white" stop-opacity="0"/>
</linearGradient>
</defs>
</svg>
